<svg width="203" height="213" viewBox="0 0 203 213" fill="none" xmlns="http://www.w3.org/2000/svg">
<g filter="url(#filter0_d_8_130977)">
<circle cx="100" cy="100" r="100" fill="white"/>
<circle cx="100" cy="100" r="96" stroke="black" stroke-width="8"/>
</g>
<path d="M69.0446 74.448C67.402 74.448 65.8153 74.2613 64.2846 73.888C62.754 73.5147 61.494 73.0293 60.5046 72.432L62.6326 67.616C63.566 68.1573 64.602 68.596 65.7406 68.932C66.898 69.2493 68.018 69.408 69.1006 69.408C69.7353 69.408 70.23 69.3707 70.5846 69.296C70.958 69.2027 71.2286 69.0813 71.3966 68.932C71.5646 68.764 71.6486 68.568 71.6486 68.344C71.6486 67.9893 71.4526 67.7093 71.0606 67.504C70.6686 67.2987 70.146 67.1307 69.4926 67C68.858 66.8507 68.158 66.7013 67.3926 66.552C66.6273 66.384 65.8526 66.1693 65.0686 65.908C64.3033 65.6467 63.594 65.3013 62.9406 64.872C62.306 64.4427 61.7926 63.8827 61.4006 63.192C61.0086 62.4827 60.8126 61.6053 60.8126 60.56C60.8126 59.3467 61.1486 58.2453 61.8206 57.256C62.5113 56.248 63.5286 55.4453 64.8726 54.848C66.2353 54.2507 67.9246 53.952 69.9406 53.952C71.266 53.952 72.5726 54.092 73.8606 54.372C75.1486 54.652 76.306 55.0813 77.3326 55.66L75.3446 60.448C74.374 59.9627 73.4313 59.5987 72.5166 59.356C71.6206 59.1133 70.7433 58.992 69.8846 58.992C69.25 58.992 68.746 59.048 68.3726 59.16C67.9993 59.272 67.7286 59.4213 67.5606 59.608C67.4113 59.7947 67.3366 60 67.3366 60.224C67.3366 60.56 67.5326 60.8307 67.9246 61.036C68.3166 61.2227 68.83 61.3813 69.4646 61.512C70.118 61.6427 70.8273 61.7827 71.5926 61.932C72.3766 62.0813 73.1513 62.2867 73.9166 62.548C74.682 62.8093 75.382 63.1547 76.0166 63.584C76.67 64.0133 77.1926 64.5733 77.5846 65.264C77.9766 65.9547 78.1726 66.8133 78.1726 67.84C78.1726 69.0347 77.8273 70.136 77.1366 71.144C76.4646 72.1333 75.4566 72.936 74.1126 73.552C72.7686 74.1493 71.0793 74.448 69.0446 74.448ZM84.1215 74V59.524H78.3815V54.4H96.4695V59.524H90.7295V74H84.1215ZM108.188 74.448C106.602 74.448 105.127 74.196 103.764 73.692C102.42 73.188 101.254 72.4787 100.264 71.564C99.2751 70.6307 98.5004 69.5387 97.9404 68.288C97.3991 67.0373 97.1284 65.6747 97.1284 64.2C97.1284 62.7067 97.3991 61.344 97.9404 60.112C98.5004 58.8613 99.2751 57.7787 100.264 56.864C101.254 55.9307 102.42 55.212 103.764 54.708C105.127 54.204 106.602 53.952 108.188 53.952C109.794 53.952 111.268 54.204 112.612 54.708C113.956 55.212 115.123 55.9307 116.112 56.864C117.102 57.7787 117.867 58.8613 118.408 60.112C118.968 61.344 119.248 62.7067 119.248 64.2C119.248 65.6747 118.968 67.0373 118.408 68.288C117.867 69.5387 117.102 70.6307 116.112 71.564C115.123 72.4787 113.956 73.188 112.612 73.692C111.268 74.196 109.794 74.448 108.188 74.448ZM108.188 69.1C108.804 69.1 109.374 68.988 109.896 68.764C110.438 68.54 110.904 68.2227 111.296 67.812C111.707 67.3827 112.024 66.8693 112.248 66.272C112.472 65.656 112.584 64.9653 112.584 64.2C112.584 63.4347 112.472 62.7533 112.248 62.156C112.024 61.54 111.707 61.0267 111.296 60.616C110.904 60.1867 110.438 59.86 109.896 59.636C109.374 59.412 108.804 59.3 108.188 59.3C107.572 59.3 106.994 59.412 106.452 59.636C105.93 59.86 105.463 60.1867 105.052 60.616C104.66 61.0267 104.352 61.54 104.128 62.156C103.904 62.7533 103.792 63.4347 103.792 64.2C103.792 64.9653 103.904 65.656 104.128 66.272C104.352 66.8693 104.66 67.3827 105.052 67.812C105.463 68.2227 105.93 68.54 106.452 68.764C106.994 68.988 107.572 69.1 108.188 69.1ZM121.647 74V54.4H131.083C132.912 54.4 134.489 54.6987 135.815 55.296C137.159 55.8933 138.195 56.752 138.923 57.872C139.651 58.9733 140.015 60.28 140.015 61.792C140.015 63.304 139.651 64.6107 138.923 65.712C138.195 66.8133 137.159 67.672 135.815 68.288C134.489 68.8853 132.912 69.184 131.083 69.184H125.315L128.255 66.356V74H121.647ZM128.255 67.084L125.315 64.088H130.663C131.577 64.088 132.249 63.8827 132.679 63.472C133.127 63.0613 133.351 62.5013 133.351 61.792C133.351 61.0827 133.127 60.5227 132.679 60.112C132.249 59.7013 131.577 59.496 130.663 59.496H125.315L128.255 56.5V67.084Z" fill="black"/>
<path d="M74.972 139.96C72.492 139.96 70.092 139.66 67.772 139.06C65.492 138.5 63.552 137.7 61.952 136.66L67.052 126.76C68.292 127.64 69.532 128.24 70.772 128.56C72.052 128.84 73.352 128.98 74.672 128.98C77.512 128.98 79.772 128.14 81.452 126.46C83.172 124.74 84.032 122.26 84.032 119.02C84.032 118.42 84.032 117.84 84.032 117.28C84.032 116.68 84.032 116.08 84.032 115.48L87.272 117.82C86.512 119.18 85.572 120.34 84.452 121.3C83.372 122.22 82.092 122.94 80.612 123.46C79.132 123.94 77.412 124.18 75.452 124.18C72.892 124.18 70.512 123.64 68.312 122.56C66.152 121.44 64.392 119.88 63.032 117.88C61.712 115.84 61.052 113.46 61.052 110.74C61.052 107.74 61.812 105.14 63.332 102.94C64.852 100.74 66.892 99.04 69.452 97.84C72.052 96.64 74.932 96.04 78.092 96.04C82.092 96.04 85.592 96.82 88.592 98.38C91.632 99.9 93.992 102.18 95.672 105.22C97.392 108.26 98.252 112.08 98.252 116.68C98.252 121.6 97.272 125.8 95.312 129.28C93.352 132.72 90.632 135.36 87.152 137.2C83.672 139.04 79.612 139.96 74.972 139.96ZM79.052 114.4C79.892 114.4 80.632 114.22 81.272 113.86C81.952 113.5 82.472 113 82.832 112.36C83.192 111.72 83.372 110.96 83.372 110.08C83.372 109.2 83.192 108.44 82.832 107.8C82.472 107.16 81.952 106.68 81.272 106.36C80.632 106 79.892 105.82 79.052 105.82C78.212 105.82 77.472 106 76.832 106.36C76.192 106.68 75.672 107.16 75.272 107.8C74.912 108.44 74.732 109.2 74.732 110.08C74.732 111.4 75.132 112.46 75.932 113.26C76.772 114.02 77.812 114.4 79.052 114.4ZM114.64 139.96C112.16 139.96 109.76 139.66 107.44 139.06C105.16 138.5 103.22 137.7 101.62 136.66L106.72 126.76C107.96 127.64 109.2 128.24 110.44 128.56C111.72 128.84 113.02 128.98 114.34 128.98C117.18 128.98 119.44 128.14 121.12 126.46C122.84 124.74 123.7 122.26 123.7 119.02C123.7 118.42 123.7 117.84 123.7 117.28C123.7 116.68 123.7 116.08 123.7 115.48L126.94 117.82C126.18 119.18 125.24 120.34 124.12 121.3C123.04 122.22 121.76 122.94 120.28 123.46C118.8 123.94 117.08 124.18 115.12 124.18C112.56 124.18 110.18 123.64 107.98 122.56C105.82 121.44 104.06 119.88 102.7 117.88C101.38 115.84 100.72 113.46 100.72 110.74C100.72 107.74 101.48 105.14 103 102.94C104.52 100.74 106.56 99.04 109.12 97.84C111.72 96.64 114.6 96.04 117.76 96.04C121.76 96.04 125.26 96.82 128.26 98.38C131.3 99.9 133.66 102.18 135.34 105.22C137.06 108.26 137.92 112.08 137.92 116.68C137.92 121.6 136.94 125.8 134.98 129.28C133.02 132.72 130.3 135.36 126.82 137.2C123.34 139.04 119.28 139.96 114.64 139.96ZM118.72 114.4C119.56 114.4 120.3 114.22 120.94 113.86C121.62 113.5 122.14 113 122.5 112.36C122.86 111.72 123.04 110.96 123.04 110.08C123.04 109.2 122.86 108.44 122.5 107.8C122.14 107.16 121.62 106.68 120.94 106.36C120.3 106 119.56 105.82 118.72 105.82C117.88 105.82 117.14 106 116.5 106.36C115.86 106.68 115.34 107.16 114.94 107.8C114.58 108.44 114.4 109.2 114.4 110.08C114.4 111.4 114.8 112.46 115.6 113.26C116.44 114.02 117.48 114.4 118.72 114.4Z" fill="black"/>
<defs>
<filter id="filter0_d_8_130977" x="0" y="0" width="203" height="213" filterUnits="userSpaceOnUse" color-interpolation-filters="sRGB">
<feFlood flood-opacity="0" result="BackgroundImageFix"/>
<feColorMatrix in="SourceAlpha" type="matrix" values="0 0 0 0 0 0 0 0 0 0 0 0 0 0 0 0 0 0 127 0" result="hardAlpha"/>
<feOffset dx="2" dy="12"/>
<feGaussianBlur stdDeviation="0.5"/>
<feComposite in2="hardAlpha" operator="out"/>
<feColorMatrix type="matrix" values="0 0 0 0 0 0 0 0 0 0 0 0 0 0 0 0 0 0 0.25 0"/>
<feBlend mode="normal" in2="BackgroundImageFix" result="effect1_dropShadow_8_130977"/>
<feBlend mode="normal" in="SourceGraphic" in2="effect1_dropShadow_8_130977" result="shape"/>
</filter>
</defs>
</svg>
