<svg width="290" height="60" viewBox="0 0 290 60" fill="none" xmlns="http://www.w3.org/2000/svg">
<rect x="39" y="8" width="248" height="44" rx="22" fill="#FFC935"/>
<rect x="39" y="8" width="248" height="44" rx="22" stroke="black" stroke-width="6"/>
<path d="M63 30H263" stroke="black" stroke-width="6" stroke-linecap="round"/>
<circle cx="83" cy="30" r="12" fill="white" stroke="black" stroke-width="4"/>
<path d="M31.8454 4.57849C35.2848 1.60168 40.6695 2.99713 42.2201 7.4046L49.4225 27.8836C51.2534 33.0895 48.5861 38.8188 43.465 40.6801C38.3439 42.5408 32.7089 39.8292 30.8779 34.6234C29.1609 29.7412 31.399 24.3981 35.908 22.2174L34.077 17.0112L22.756 25.5136L29.1233 43.6177L29.2816 44.1071C30.7847 49.1776 28.1261 54.6098 23.1652 56.4129C18.0443 58.274 12.4087 55.5635 10.5775 50.358C8.86042 45.4755 11.0993 40.1319 15.6087 37.9515L11.5155 26.3132C10.6538 23.8616 11.2818 21.1259 13.1195 19.3144L13.227 19.2081L13.3458 19.1144L31.6587 4.75008L31.7793 4.63758L31.8126 4.6072L31.8454 4.57849Z" fill="white" stroke="black" stroke-width="5"/>
</svg>
