<svg width="240" height="463" viewBox="0 0 240 463" fill="none" xmlns="http://www.w3.org/2000/svg">
<g filter="url(#filter0_d_8_130988)">
<circle cx="120" cy="120" r="100" fill="white"/>
<circle cx="120" cy="120" r="96" stroke="black" stroke-width="8"/>
</g>
<path d="M74.1507 91.3327L77.8179 93.7414C78.4592 94.1626 79.3176 93.9815 79.7568 93.3509C98.7409 66.0883 145.822 58.4153 165.861 101.138C166.557 102.624 164.468 103.708 163.427 102.442C136.582 69.786 102.256 87.6489 96.3548 104.059C96.1693 104.575 96.34 105.137 96.7517 105.498L99.9422 108.292C100.679 108.937 100.539 110.125 99.6731 110.58L76.342 122.839C75.4592 123.303 74.3915 122.711 74.3124 121.714L72.0047 92.6115C71.913 91.4554 73.1841 90.698 74.1507 91.3327Z" fill="black" stroke="black" stroke-width="0.672329"/>
<path d="M165.849 148.667L162.182 146.259C161.541 145.837 160.682 146.018 160.243 146.649C141.259 173.912 94.1779 181.585 74.1394 138.862C73.4426 137.376 75.5319 136.292 76.5728 137.558C103.418 170.214 137.744 152.351 143.645 135.941C143.831 135.425 143.66 134.863 143.248 134.502L140.058 131.708C139.321 131.063 139.461 129.875 140.327 129.42L163.658 117.16C164.541 116.697 165.609 117.289 165.688 118.286L167.995 147.388C168.087 148.545 166.816 149.302 165.849 148.667Z" fill="black" stroke="black" stroke-width="0.672329"/>
<g filter="url(#filter1_d_8_130988)">
<circle cx="120" cy="343" r="100" fill="white"/>
<circle cx="120" cy="343" r="96" stroke="black" stroke-width="8"/>
</g>
<path d="M89.0446 317.448C87.402 317.448 85.8153 317.261 84.2846 316.888C82.754 316.515 81.494 316.029 80.5046 315.432L82.6326 310.616C83.566 311.157 84.602 311.596 85.7406 311.932C86.898 312.249 88.018 312.408 89.1006 312.408C89.7353 312.408 90.23 312.371 90.5846 312.296C90.958 312.203 91.2286 312.081 91.3966 311.932C91.5646 311.764 91.6486 311.568 91.6486 311.344C91.6486 310.989 91.4526 310.709 91.0606 310.504C90.6686 310.299 90.146 310.131 89.4926 310C88.858 309.851 88.158 309.701 87.3926 309.552C86.6273 309.384 85.8526 309.169 85.0686 308.908C84.3033 308.647 83.594 308.301 82.9406 307.872C82.306 307.443 81.7926 306.883 81.4006 306.192C81.0086 305.483 80.8126 304.605 80.8126 303.56C80.8126 302.347 81.1486 301.245 81.8206 300.256C82.5113 299.248 83.5286 298.445 84.8726 297.848C86.2353 297.251 87.9246 296.952 89.9406 296.952C91.266 296.952 92.5726 297.092 93.8606 297.372C95.1486 297.652 96.306 298.081 97.3326 298.66L95.3446 303.448C94.374 302.963 93.4313 302.599 92.5166 302.356C91.6206 302.113 90.7433 301.992 89.8846 301.992C89.25 301.992 88.746 302.048 88.3726 302.16C87.9993 302.272 87.7286 302.421 87.5606 302.608C87.4113 302.795 87.3366 303 87.3366 303.224C87.3366 303.56 87.5326 303.831 87.9246 304.036C88.3166 304.223 88.83 304.381 89.4646 304.512C90.118 304.643 90.8273 304.783 91.5926 304.932C92.3766 305.081 93.1513 305.287 93.9166 305.548C94.682 305.809 95.382 306.155 96.0166 306.584C96.67 307.013 97.1926 307.573 97.5846 308.264C97.9766 308.955 98.1726 309.813 98.1726 310.84C98.1726 312.035 97.8273 313.136 97.1366 314.144C96.4646 315.133 95.4566 315.936 94.1126 316.552C92.7686 317.149 91.0793 317.448 89.0446 317.448ZM104.122 317V302.524H98.3815V297.4H116.47V302.524H110.73V317H104.122ZM128.188 317.448C126.602 317.448 125.127 317.196 123.764 316.692C122.42 316.188 121.254 315.479 120.264 314.564C119.275 313.631 118.5 312.539 117.94 311.288C117.399 310.037 117.128 308.675 117.128 307.2C117.128 305.707 117.399 304.344 117.94 303.112C118.5 301.861 119.275 300.779 120.264 299.864C121.254 298.931 122.42 298.212 123.764 297.708C125.127 297.204 126.602 296.952 128.188 296.952C129.794 296.952 131.268 297.204 132.612 297.708C133.956 298.212 135.123 298.931 136.112 299.864C137.102 300.779 137.867 301.861 138.408 303.112C138.968 304.344 139.248 305.707 139.248 307.2C139.248 308.675 138.968 310.037 138.408 311.288C137.867 312.539 137.102 313.631 136.112 314.564C135.123 315.479 133.956 316.188 132.612 316.692C131.268 317.196 129.794 317.448 128.188 317.448ZM128.188 312.1C128.804 312.1 129.374 311.988 129.896 311.764C130.438 311.54 130.904 311.223 131.296 310.812C131.707 310.383 132.024 309.869 132.248 309.272C132.472 308.656 132.584 307.965 132.584 307.2C132.584 306.435 132.472 305.753 132.248 305.156C132.024 304.54 131.707 304.027 131.296 303.616C130.904 303.187 130.438 302.86 129.896 302.636C129.374 302.412 128.804 302.3 128.188 302.3C127.572 302.3 126.994 302.412 126.452 302.636C125.93 302.86 125.463 303.187 125.052 303.616C124.66 304.027 124.352 304.54 124.128 305.156C123.904 305.753 123.792 306.435 123.792 307.2C123.792 307.965 123.904 308.656 124.128 309.272C124.352 309.869 124.66 310.383 125.052 310.812C125.463 311.223 125.93 311.54 126.452 311.764C126.994 311.988 127.572 312.1 128.188 312.1ZM141.647 317V297.4H151.083C152.912 297.4 154.489 297.699 155.815 298.296C157.159 298.893 158.195 299.752 158.923 300.872C159.651 301.973 160.015 303.28 160.015 304.792C160.015 306.304 159.651 307.611 158.923 308.712C158.195 309.813 157.159 310.672 155.815 311.288C154.489 311.885 152.912 312.184 151.083 312.184H145.315L148.255 309.356V317H141.647ZM148.255 310.084L145.315 307.088H150.663C151.577 307.088 152.249 306.883 152.679 306.472C153.127 306.061 153.351 305.501 153.351 304.792C153.351 304.083 153.127 303.523 152.679 303.112C152.249 302.701 151.577 302.496 150.663 302.496H145.315L148.255 299.5V310.084Z" fill="black"/>
<path d="M94.972 382.96C92.492 382.96 90.092 382.66 87.772 382.06C85.492 381.5 83.552 380.7 81.952 379.66L87.052 369.76C88.292 370.64 89.532 371.24 90.772 371.56C92.052 371.84 93.352 371.98 94.672 371.98C97.512 371.98 99.772 371.14 101.452 369.46C103.172 367.74 104.032 365.26 104.032 362.02C104.032 361.42 104.032 360.84 104.032 360.28C104.032 359.68 104.032 359.08 104.032 358.48L107.272 360.82C106.512 362.18 105.572 363.34 104.452 364.3C103.372 365.22 102.092 365.94 100.612 366.46C99.132 366.94 97.412 367.18 95.452 367.18C92.892 367.18 90.512 366.64 88.312 365.56C86.152 364.44 84.392 362.88 83.032 360.88C81.712 358.84 81.052 356.46 81.052 353.74C81.052 350.74 81.812 348.14 83.332 345.94C84.852 343.74 86.892 342.04 89.452 340.84C92.052 339.64 94.932 339.04 98.092 339.04C102.092 339.04 105.592 339.82 108.592 341.38C111.632 342.9 113.992 345.18 115.672 348.22C117.392 351.26 118.252 355.08 118.252 359.68C118.252 364.6 117.272 368.8 115.312 372.28C113.352 375.72 110.632 378.36 107.152 380.2C103.672 382.04 99.612 382.96 94.972 382.96ZM99.052 357.4C99.892 357.4 100.632 357.22 101.272 356.86C101.952 356.5 102.472 356 102.832 355.36C103.192 354.72 103.372 353.96 103.372 353.08C103.372 352.2 103.192 351.44 102.832 350.8C102.472 350.16 101.952 349.68 101.272 349.36C100.632 349 99.892 348.82 99.052 348.82C98.212 348.82 97.472 349 96.832 349.36C96.192 349.68 95.672 350.16 95.272 350.8C94.912 351.44 94.732 352.2 94.732 353.08C94.732 354.4 95.132 355.46 95.932 356.26C96.772 357.02 97.812 357.4 99.052 357.4ZM134.64 382.96C132.16 382.96 129.76 382.66 127.44 382.06C125.16 381.5 123.22 380.7 121.62 379.66L126.72 369.76C127.96 370.64 129.2 371.24 130.44 371.56C131.72 371.84 133.02 371.98 134.34 371.98C137.18 371.98 139.44 371.14 141.12 369.46C142.84 367.74 143.7 365.26 143.7 362.02C143.7 361.42 143.7 360.84 143.7 360.28C143.7 359.68 143.7 359.08 143.7 358.48L146.94 360.82C146.18 362.18 145.24 363.34 144.12 364.3C143.04 365.22 141.76 365.94 140.28 366.46C138.8 366.94 137.08 367.18 135.12 367.18C132.56 367.18 130.18 366.64 127.98 365.56C125.82 364.44 124.06 362.88 122.7 360.88C121.38 358.84 120.72 356.46 120.72 353.74C120.72 350.74 121.48 348.14 123 345.94C124.52 343.74 126.56 342.04 129.12 340.84C131.72 339.64 134.6 339.04 137.76 339.04C141.76 339.04 145.26 339.82 148.26 341.38C151.3 342.9 153.66 345.18 155.34 348.22C157.06 351.26 157.92 355.08 157.92 359.68C157.92 364.6 156.94 368.8 154.98 372.28C153.02 375.72 150.3 378.36 146.82 380.2C143.34 382.04 139.28 382.96 134.64 382.96ZM138.72 357.4C139.56 357.4 140.3 357.22 140.94 356.86C141.62 356.5 142.14 356 142.5 355.36C142.86 354.72 143.04 353.96 143.04 353.08C143.04 352.2 142.86 351.44 142.5 350.8C142.14 350.16 141.62 349.68 140.94 349.36C140.3 349 139.56 348.82 138.72 348.82C137.88 348.82 137.14 349 136.5 349.36C135.86 349.68 135.34 350.16 134.94 350.8C134.58 351.44 134.4 352.2 134.4 353.08C134.4 354.4 134.8 355.46 135.6 356.26C136.44 357.02 137.48 357.4 138.72 357.4Z" fill="black"/>
<defs>
<filter id="filter0_d_8_130988" x="20" y="20" width="203" height="213" filterUnits="userSpaceOnUse" color-interpolation-filters="sRGB">
<feFlood flood-opacity="0" result="BackgroundImageFix"/>
<feColorMatrix in="SourceAlpha" type="matrix" values="0 0 0 0 0 0 0 0 0 0 0 0 0 0 0 0 0 0 127 0" result="hardAlpha"/>
<feOffset dx="2" dy="12"/>
<feGaussianBlur stdDeviation="0.5"/>
<feComposite in2="hardAlpha" operator="out"/>
<feColorMatrix type="matrix" values="0 0 0 0 0 0 0 0 0 0 0 0 0 0 0 0 0 0 0.25 0"/>
<feBlend mode="normal" in2="BackgroundImageFix" result="effect1_dropShadow_8_130988"/>
<feBlend mode="normal" in="SourceGraphic" in2="effect1_dropShadow_8_130988" result="shape"/>
</filter>
<filter id="filter1_d_8_130988" x="20" y="243" width="203" height="213" filterUnits="userSpaceOnUse" color-interpolation-filters="sRGB">
<feFlood flood-opacity="0" result="BackgroundImageFix"/>
<feColorMatrix in="SourceAlpha" type="matrix" values="0 0 0 0 0 0 0 0 0 0 0 0 0 0 0 0 0 0 127 0" result="hardAlpha"/>
<feOffset dx="2" dy="12"/>
<feGaussianBlur stdDeviation="0.5"/>
<feComposite in2="hardAlpha" operator="out"/>
<feColorMatrix type="matrix" values="0 0 0 0 0 0 0 0 0 0 0 0 0 0 0 0 0 0 0.25 0"/>
<feBlend mode="normal" in2="BackgroundImageFix" result="effect1_dropShadow_8_130988"/>
<feBlend mode="normal" in="SourceGraphic" in2="effect1_dropShadow_8_130988" result="shape"/>
</filter>
</defs>
</svg>
