<svg width="254" height="50" viewBox="0 0 254 50" fill="none" xmlns="http://www.w3.org/2000/svg">
<rect x="3" y="3" width="248" height="44" rx="22" fill="white"/>
<rect x="3" y="3" width="248" height="44" rx="22" stroke="black" stroke-width="6"/>
<path d="M63.436 35V15.4H81.3V35H76.792V18.06L77.828 19.096H66.908L67.944 18.06V35H63.436ZM94.6987 35.224C93.4293 35.224 92.3187 34.944 91.3667 34.384C90.4147 33.824 89.668 32.9747 89.1267 31.836C88.604 30.6787 88.3427 29.2227 88.3427 27.468C88.3427 25.6947 88.5947 24.2387 89.0987 23.1C89.6027 21.9613 90.3307 21.112 91.2827 20.552C92.2347 19.992 93.3733 19.712 94.6987 19.712C96.1173 19.712 97.3867 20.0387 98.5067 20.692C99.6453 21.3267 100.541 22.2227 101.195 23.38C101.867 24.5373 102.203 25.9 102.203 27.468C102.203 29.0547 101.867 30.4267 101.195 31.584C100.541 32.7413 99.6453 33.6373 98.5067 34.272C97.3867 34.9067 96.1173 35.224 94.6987 35.224ZM85.7947 40.432V19.936H89.9667V23.016L89.8827 27.496L90.1627 31.948V40.432H85.7947ZM93.9427 31.64C94.6707 31.64 95.3147 31.472 95.8747 31.136C96.4533 30.8 96.9107 30.324 97.2467 29.708C97.6013 29.0733 97.7787 28.3267 97.7787 27.468C97.7787 26.5907 97.6013 25.844 97.2467 25.228C96.9107 24.612 96.4533 24.136 95.8747 23.8C95.3147 23.464 94.6707 23.296 93.9427 23.296C93.2147 23.296 92.5613 23.464 91.9827 23.8C91.404 24.136 90.9467 24.612 90.6107 25.228C90.2747 25.844 90.1067 26.5907 90.1067 27.468C90.1067 28.3267 90.2747 29.0733 90.6107 29.708C90.9467 30.324 91.404 30.8 91.9827 31.136C92.5613 31.472 93.2147 31.64 93.9427 31.64ZM114.034 35V32.06L113.754 31.416V26.152C113.754 25.2187 113.465 24.4907 112.886 23.968C112.326 23.4453 111.458 23.184 110.282 23.184C109.479 23.184 108.686 23.3147 107.902 23.576C107.137 23.8187 106.483 24.1547 105.942 24.584L104.374 21.532C105.195 20.9533 106.185 20.5053 107.342 20.188C108.499 19.8707 109.675 19.712 110.87 19.712C113.166 19.712 114.949 20.2533 116.218 21.336C117.487 22.4187 118.122 24.108 118.122 26.404V35H114.034ZM109.442 35.224C108.266 35.224 107.258 35.028 106.418 34.636C105.578 34.2253 104.934 33.6747 104.486 32.984C104.038 32.2933 103.814 31.5187 103.814 30.66C103.814 29.764 104.029 28.98 104.458 28.308C104.906 27.636 105.606 27.1133 106.558 26.74C107.51 26.348 108.751 26.152 110.282 26.152H114.286V28.7H110.758C109.731 28.7 109.022 28.868 108.63 29.204C108.257 29.54 108.07 29.96 108.07 30.464C108.07 31.024 108.285 31.472 108.714 31.808C109.162 32.1253 109.769 32.284 110.534 32.284C111.262 32.284 111.915 32.116 112.494 31.78C113.073 31.4253 113.493 30.912 113.754 30.24L114.426 32.256C114.109 33.2267 113.53 33.964 112.69 34.468C111.85 34.972 110.767 35.224 109.442 35.224ZM121.916 35V19.936H129.616C131.502 19.936 132.976 20.2813 134.04 20.972C135.104 21.644 135.636 22.596 135.636 23.828C135.636 25.06 135.132 26.0307 134.124 26.74C133.135 27.4307 131.819 27.776 130.176 27.776L130.624 26.768C132.454 26.768 133.816 27.104 134.712 27.776C135.627 28.448 136.084 29.428 136.084 30.716C136.084 32.0413 135.58 33.0867 134.572 33.852C133.564 34.6173 132.024 35 129.952 35H121.916ZM125.92 32.032H129.588C130.391 32.032 130.988 31.9013 131.38 31.64C131.791 31.36 131.996 30.94 131.996 30.38C131.996 29.8013 131.81 29.3813 131.436 29.12C131.063 28.84 130.475 28.7 129.672 28.7H125.92V32.032ZM125.92 26.124H129.224C129.99 26.124 130.559 25.984 130.932 25.704C131.324 25.424 131.52 25.0227 131.52 24.5C131.52 23.9587 131.324 23.5573 130.932 23.296C130.559 23.0347 129.99 22.904 129.224 22.904H125.92V26.124ZM139.334 35V19.936H143.674V28.896L151.01 19.936H155.014V35H150.674V26.04L143.366 35H139.334ZM159.577 35.308C159.241 35.308 158.887 35.28 158.513 35.224C158.14 35.168 157.739 35.084 157.309 34.972L157.533 31.388C157.645 31.4067 157.757 31.4253 157.869 31.444C157.981 31.444 158.084 31.444 158.177 31.444C158.7 31.444 159.111 31.2947 159.409 30.996C159.708 30.6973 159.932 30.296 160.081 29.792C160.231 29.2693 160.333 28.6813 160.389 28.028C160.464 27.3747 160.52 26.6933 160.557 25.984L160.781 19.936H173.661V35H169.293V22.456L170.273 23.52H163.665L164.589 22.4L164.393 26.18C164.337 27.524 164.225 28.756 164.057 29.876C163.908 30.996 163.656 31.9667 163.301 32.788C162.947 33.5907 162.471 34.216 161.873 34.664C161.276 35.0933 160.511 35.308 159.577 35.308ZM186.878 35V32.06L186.598 31.416V26.152C186.598 25.2187 186.308 24.4907 185.73 23.968C185.17 23.4453 184.302 23.184 183.126 23.184C182.323 23.184 181.53 23.3147 180.746 23.576C179.98 23.8187 179.327 24.1547 178.786 24.584L177.218 21.532C178.039 20.9533 179.028 20.5053 180.186 20.188C181.343 19.8707 182.519 19.712 183.714 19.712C186.01 19.712 187.792 20.2533 189.062 21.336C190.331 22.4187 190.966 24.108 190.966 26.404V35H186.878ZM182.286 35.224C181.11 35.224 180.102 35.028 179.262 34.636C178.422 34.2253 177.778 33.6747 177.33 32.984C176.882 32.2933 176.658 31.5187 176.658 30.66C176.658 29.764 176.872 28.98 177.302 28.308C177.75 27.636 178.45 27.1133 179.402 26.74C180.354 26.348 181.595 26.152 183.126 26.152H187.13V28.7H183.602C182.575 28.7 181.866 28.868 181.474 29.204C181.1 29.54 180.914 29.96 180.914 30.464C180.914 31.024 181.128 31.472 181.558 31.808C182.006 32.1253 182.612 32.284 183.378 32.284C184.106 32.284 184.759 32.116 185.338 31.78C185.916 31.4253 186.336 30.912 186.598 30.24L187.27 32.256C186.952 33.2267 186.374 33.964 185.534 34.468C184.694 34.972 183.611 35.224 182.286 35.224Z" fill="black"/>
</svg>
